# Blender v2.80 (sub 75) OBJ File: ''
# www.blender.org
mtllib paddle.mtl
o Cylinder_Cylinder.001
v 0.390591 -0.178456 -1.483318
v 0.390591 0.178456 -1.483318
v 1.083633 -0.178456 -1.253016
v 1.083633 0.178456 -1.253016
v 1.611702 -0.178456 -0.831955
v 1.611702 0.178456 -0.831955
v 1.894404 -0.178456 -0.284235
v 1.894404 0.178456 -0.284235
v 1.888700 -0.178456 0.306756
v 1.888700 0.178456 0.306756
v 1.595458 -0.178456 0.851047
v 1.595458 0.178456 0.851047
v 1.059323 -0.178456 1.265774
v 1.059323 0.178456 1.265774
v 0.361915 -0.178456 1.487798
v 0.361915 0.178456 1.487798
v -0.390591 -0.178456 1.483318
v -0.390591 0.178456 1.483318
v -1.083633 -0.178456 1.253017
v -1.083633 0.178456 1.253017
v -1.611702 -0.178456 0.831955
v -1.611702 0.178456 0.831955
v -1.894404 -0.178456 0.284236
v -1.894404 0.178456 0.284236
v -1.888700 -0.178456 -0.306756
v -1.888700 0.178456 -0.306756
v -1.595458 -0.178456 -0.851047
v -1.595458 0.178456 -0.851047
v -1.059322 -0.178456 -1.265774
v -1.059322 0.178456 -1.265774
v -0.361914 -0.178456 -1.487798
v -0.361914 0.178456 -1.487798
v -4.070926 0.178456 0.268785
v -4.070926 -0.178456 0.268785
v -4.065222 -0.178456 -0.322207
v -4.065222 0.178456 -0.322207
vt 1.000000 1.000000
vt 0.937500 0.500000
vt 1.000000 0.500000
vt 0.937500 1.000000
vt 0.875000 0.500000
vt 0.875000 1.000000
vt 0.812500 0.500000
vt 0.812500 1.000000
vt 0.750000 0.500000
vt 0.750000 1.000000
vt 0.687500 0.500000
vt 0.687500 1.000000
vt 0.625000 0.500000
vt 0.625000 1.000000
vt 0.562500 0.500000
vt 0.562500 1.000000
vt 0.500000 0.500000
vt 0.500000 1.000000
vt 0.437500 0.500000
vt 0.437500 1.000000
vt 0.375000 0.500000
vt 0.375000 1.000000
vt 0.312500 0.500000
vt 0.028269 0.158156
vt 0.010000 0.250000
vt 0.028269 0.158156
vt 0.250000 1.000000
vt 0.187500 0.500000
vt 0.250000 0.500000
vt 0.187500 1.000000
vt 0.125000 0.500000
vt 0.490000 0.250000
vt 0.471731 0.341844
vt 0.419706 0.419706
vt 0.125000 1.000000
vt 0.062500 0.500000
vt 0.062500 1.000000
vt 0.000000 0.500000
vt 0.528269 0.341844
vt 0.580294 0.419706
vt 0.658156 0.028269
vt 0.312500 1.000000
vt 0.250000 0.500000
vt 0.312500 0.500000
vt 0.312500 1.000000
vt 0.250000 1.000000
vt 0.528269 0.158156
vt 0.510000 0.250000
vt 0.510000 0.250000
vt 0.010000 0.250000
vt 0.341844 0.471731
vt 0.471731 0.158156
vt 0.250000 0.490000
vt 0.419706 0.080294
vt 0.158156 0.471731
vt 0.341844 0.028269
vt 0.080294 0.419706
vt 0.250000 0.010000
vt 0.028269 0.341844
vt 0.158156 0.028269
vt 0.080294 0.080294
vt 0.000000 1.000000
vt 0.658156 0.471731
vt 0.750000 0.490000
vt 0.841844 0.028269
vt 0.841844 0.471731
vt 0.919706 0.080294
vt 0.919706 0.419706
vt 0.971731 0.158156
vt 0.971731 0.341844
vt 0.990000 0.250000
vt 0.750000 0.010000
vt 0.580294 0.080294
vt 0.528269 0.158156
vn 0.3153 0.0000 -0.9490
vn 0.6234 0.0000 -0.7819
vn 0.8886 0.0000 -0.4587
vn 1.0000 0.0000 0.0097
vn 0.8804 0.0000 0.4743
vn 0.6119 0.0000 0.7910
vn 0.3034 0.0000 0.9529
vn -0.0060 0.0000 1.0000
vn -0.3153 0.0000 0.9490
vn -0.6234 0.0000 0.7819
vn -0.8886 0.0000 0.4587
vn 0.0000 1.0000 -0.0000
vn -0.8804 0.0000 -0.4743
vn -0.6119 0.0000 -0.7910
vn -0.3034 0.0000 -0.9529
vn 0.0060 0.0000 -1.0000
vn 0.0000 -1.0000 -0.0000
vn -1.0000 0.0000 -0.0097
vn -0.0071 0.0000 1.0000
vn 0.0071 0.0000 -1.0000
usemtl None
s off
f 2/1/1 3/2/1 1/3/1
f 4/4/2 5/5/2 3/2/2
f 6/6/3 7/7/3 5/5/3
f 8/8/4 9/9/4 7/7/4
f 10/10/5 11/11/5 9/9/5
f 12/12/6 13/13/6 11/11/6
f 14/14/7 15/15/7 13/13/7
f 16/16/8 17/17/8 15/15/8
f 18/18/9 19/19/9 17/17/9
f 20/20/10 21/21/10 19/19/10
f 22/22/11 23/23/11 21/21/11
f 24/24/12 36/25/12 33/26/12
f 26/27/13 27/28/13 25/29/13
f 28/30/14 29/31/14 27/28/14
f 10/32/12 8/33/12 6/34/12
f 30/35/15 31/36/15 29/31/15
f 32/37/16 1/38/16 31/36/16
f 27/39/17 29/40/17 19/41/17
f 33/42/18 35/43/18 34/44/18
f 24/45/19 34/44/19 23/23/19
f 25/29/20 36/46/20 26/27/20
f 23/47/17 35/48/17 25/49/17
f 2/1/1 4/4/1 3/2/1
f 4/4/2 6/6/2 5/5/2
f 6/6/3 8/8/3 7/7/3
f 8/8/4 10/10/4 9/9/4
f 10/10/5 12/12/5 11/11/5
f 12/12/6 14/14/6 13/13/6
f 14/14/7 16/16/7 15/15/7
f 16/16/8 18/18/8 17/17/8
f 18/18/9 20/20/9 19/19/9
f 20/20/10 22/22/10 21/21/10
f 22/22/11 24/45/11 23/23/11
f 24/24/12 26/50/12 36/25/12
f 26/27/13 28/30/13 27/28/13
f 28/30/14 30/35/14 29/31/14
f 6/34/12 4/51/12 12/52/12
f 4/51/12 2/53/12 14/54/12
f 2/53/12 32/55/12 16/56/12
f 32/55/12 30/57/12 18/58/12
f 30/57/12 28/59/12 20/60/12
f 28/59/12 26/50/12 22/61/12
f 26/50/12 24/24/12 22/61/12
f 22/61/12 20/60/12 28/59/12
f 20/60/12 18/58/12 30/57/12
f 18/58/12 16/56/12 32/55/12
f 16/56/12 14/54/12 2/53/12
f 14/54/12 12/52/12 4/51/12
f 12/52/12 10/32/12 6/34/12
f 30/35/15 32/37/15 31/36/15
f 32/37/16 2/62/16 1/38/16
f 31/63/17 1/64/17 15/65/17
f 1/64/17 3/66/17 13/67/17
f 15/65/17 1/64/17 13/67/17
f 3/66/17 5/68/17 11/69/17
f 5/68/17 7/70/17 9/71/17
f 11/69/17 5/68/17 9/71/17
f 11/69/17 13/67/17 3/66/17
f 15/65/17 17/72/17 31/63/17
f 17/72/17 19/41/17 29/40/17
f 31/63/17 17/72/17 29/40/17
f 19/41/17 21/73/17 27/39/17
f 21/73/17 23/47/17 25/49/17
f 27/39/17 21/73/17 25/49/17
f 33/42/18 36/46/18 35/43/18
f 24/45/19 33/42/19 34/44/19
f 25/29/20 35/43/20 36/46/20
f 23/47/17 34/74/17 35/48/17
